<svg width="25" height="25" viewBox="0 0 25 25" fill="none" xmlns="http://www.w3.org/2000/svg">
<rect x="0.713867" y="0.97168" width="23.3155" height="23.3156" rx="3" fill="#A67B5B" fill-opacity="0.1"/>
<path d="M20.1416 0H4.85787C3.56992 0.00144251 2.33514 0.513718 1.42443 1.42444C0.513712 2.33515 0.00143994 3.56994 0 4.85788V20.1421C0.00143994 21.4301 0.513712 22.6648 1.42443 23.5756C2.33514 24.4863 3.56992 24.9986 4.85787 25H20.1416C21.4296 24.9986 22.6645 24.4863 23.5753 23.5756C24.4861 22.6649 24.9985 21.4301 25 20.1421V4.85788C24.9985 3.56988 24.4861 2.33508 23.5753 1.42438C22.6645 0.513667 21.4296 0.0014166 20.1416 0ZM23.057 20.1421C23.0561 20.915 22.7486 21.6559 22.202 22.2024C21.6555 22.7489 20.9145 23.0562 20.1416 23.057H4.85787C4.08507 23.0561 3.3442 22.7487 2.79775 22.2022C2.2513 21.6558 1.94389 20.9149 1.94296 20.1421V4.85788C1.94389 4.08509 2.2513 3.34421 2.79775 2.79775C3.3442 2.2513 4.08507 1.9439 4.85787 1.94296H20.1416C20.9145 1.94379 21.6555 2.25115 22.202 2.79761C22.7486 3.34407 23.0561 4.08501 23.057 4.85788V20.1421Z" fill="black"/>
<path d="M20.7736 10.5075C20.7736 8.7951 20.2093 7.17979 19.1846 5.95904C18.1242 4.69573 16.6994 4 15.1727 4C13.7281 4 12.3585 4.63242 11.3163 5.78079C10.4308 6.75654 9.84937 8.03329 9.6494 9.42147C7.93793 9.22436 6.41553 9.63576 5.3547 10.585C4.27514 11.5509 3.81753 12.9443 4.06608 14.5085C4.30627 16.0199 5.18379 17.5192 6.53705 18.73C7.89032 19.9408 9.56594 20.726 11.2552 20.9409C11.5663 20.9804 11.8711 21 12.1684 21C13.5422 21 14.7528 20.582 15.6403 19.7879C16.5318 18.9903 16.9987 17.9009 16.9944 16.6648C19.2388 15.7742 20.7736 13.3069 20.7736 10.5075ZM12.1806 6.40866C12.9377 5.57441 13.8927 5.08369 14.8952 5.00693C16.0847 6.57968 16.0303 8.68168 14.7302 10.2052C14.4459 10.5384 14.208 10.8958 14.0179 11.2734C13.0316 10.4949 11.9053 9.92989 10.7425 9.62679C10.9052 8.39057 11.4081 7.25987 12.1806 6.40866ZM11.412 19.9548C9.95984 19.77 8.50812 19.0849 7.32425 18.0257C6.14038 16.9664 5.37467 15.6675 5.16824 14.3683C4.98586 13.2206 5.26487 12.2029 5.95484 11.4719C8.03875 11.8316 9.66109 13.3529 9.94581 15.2527C10.2526 17.2989 11.8276 18.9865 13.9396 19.6615C13.2224 19.971 12.3565 20.0748 11.412 19.9548ZM15.0402 18.901C12.9563 18.5413 11.334 17.02 11.0492 15.1202C10.7425 13.074 9.16748 11.3863 7.05541 10.7113C7.77262 10.4018 8.63852 10.298 9.58316 10.4181C11.0353 10.6028 12.487 11.288 13.6708 12.3472C14.8547 13.4065 15.6204 14.7053 15.8269 16.0046C16.0092 17.1523 15.7302 18.17 15.0402 18.901ZM16.8804 15.6008C16.6183 14.3402 15.9179 13.0996 14.8737 12.0395C15.0463 11.5978 15.2948 11.185 15.6151 10.8097C17.0154 9.16865 17.2354 6.97885 16.2754 5.16533C17.0272 5.4002 17.7215 5.87458 18.2945 6.55723C19.1753 7.60656 19.6604 9.00945 19.6604 10.5075C19.6604 11.7805 19.3142 12.9773 18.6592 13.9684C18.1847 14.6863 17.5677 15.2491 16.8804 15.6008Z" fill="black"/>
</svg>
