<svg width="25" height="25" viewBox="0 0 25 25" fill="none" xmlns="http://www.w3.org/2000/svg">
<rect x="0.971436" y="0.97168" width="23.3155" height="23.3156" rx="3" fill="#699364"/>
<path d="M20.1416 0H4.85787C3.56992 0.00144251 2.33514 0.513718 1.42443 1.42444C0.513712 2.33515 0.00143994 3.56994 0 4.85789V20.1421C0.00143994 21.4301 0.513712 22.6648 1.42443 23.5756C2.33514 24.4863 3.56992 24.9986 4.85787 25H20.1416C21.4296 24.9986 22.6645 24.4863 23.5753 23.5756C24.4861 22.6649 24.9985 21.4301 25 20.1421V4.85789C24.9985 3.56988 24.4861 2.33509 23.5753 1.42438C22.6645 0.513668 21.4296 0.0014166 20.1416 0ZM23.057 20.1421C23.0561 20.915 22.7486 21.6559 22.202 22.2024C21.6555 22.7489 20.9145 23.0562 20.1416 23.057H4.85787C4.08507 23.0561 3.3442 22.7487 2.79775 22.2022C2.2513 21.6558 1.94389 20.9149 1.94296 20.1421V4.85789C1.94389 4.08509 2.2513 3.34421 2.79775 2.79776C3.3442 2.2513 4.08507 1.9439 4.85787 1.94296H20.1416C20.9145 1.94379 21.6555 2.25115 22.202 2.79761C22.7486 3.34407 23.0561 4.08501 23.057 4.85789V20.1421Z" fill="black"/>
<path d="M18.2031 14.7051C16.6609 14.7051 15.4062 15.9646 15.4062 17.5128C15.56 21.2376 20.8468 21.2365 21 17.5128C21 15.9646 19.7453 14.7051 18.2031 14.7051ZM18.2031 19.3822C17.1783 19.3822 16.3445 18.5436 16.3445 17.5128C16.4468 15.0327 19.9598 15.0334 20.0617 17.5128C20.0617 18.5436 19.2279 19.3822 18.2031 19.3822Z" fill="black"/>
<path d="M12.2706 15.6436C12.8127 15.6436 13.3266 15.881 13.6805 16.2948C13.8489 16.4918 14.1451 16.5149 14.3419 16.3465C14.5389 16.1781 14.562 15.882 14.3936 15.6851C12.7145 13.7179 9.47336 14.9256 9.47376 17.5131C9.46773 19.9938 12.5061 21.262 14.249 19.4976C14.4318 19.3139 14.4311 19.0169 14.2475 18.8341C14.0639 18.6514 13.7668 18.6521 13.584 18.8357C12.4239 20.0092 10.4079 19.1629 10.412 17.513C10.4121 16.4822 11.2458 15.6436 12.2706 15.6436Z" fill="black"/>
<path d="M8.30803 15.6434C8.9305 15.6186 8.93003 14.7296 8.30803 14.7051H5.46914C5.21005 14.7051 5 14.9151 5 15.1742V19.8513C5 20.1104 5.21005 20.3205 5.46914 20.3205H8.30803C8.9305 20.2957 8.93003 19.4067 8.30803 19.3822H5.93829V17.9919H7.52813C8.15059 17.9671 8.15012 17.0782 7.52813 17.0536H5.93829V15.6433H8.30803V15.6434Z" fill="black"/>
<path d="M10.3502 13.3698H14.2613C17.1261 13.3698 19.4568 11.0391 19.4568 8.17426V6.14883C19.4568 5.88974 19.2467 5.67969 18.9876 5.67969H16.9622C14.7571 5.67969 12.8687 7.06069 12.1158 9.00314C11.4511 7.96758 10.2895 7.28007 8.97028 7.28007H7.0845C6.82541 7.28007 6.61536 7.49012 6.61536 7.74921V9.63499C6.61536 11.6944 8.29083 13.3698 10.3502 13.3698ZM12.705 10.8752C12.705 8.52777 14.6148 6.61798 16.9623 6.61798H18.5185V8.17426C18.5185 10.5217 16.6087 12.4315 14.2613 12.4315H13.3684L16.6027 9.19727C16.7859 9.01406 16.7859 8.71703 16.6027 8.53381C16.4195 8.35059 16.1225 8.35059 15.9392 8.53381L12.7051 11.7679C12.7052 11.6586 12.7051 10.944 12.705 10.8752ZM7.55365 8.21836H8.97031C10.5083 8.21836 11.7602 9.46637 11.7667 11.0029V11.7679L9.48903 9.49024C9.03142 9.0676 8.40308 9.69654 8.82556 10.1537L11.1034 12.4315H10.3502C8.80817 12.4315 7.55365 11.177 7.55365 9.63499V8.21836Z" fill="black"/>
</svg>
