<svg width="25" height="25" viewBox="0 0 25 25" fill="none" xmlns="http://www.w3.org/2000/svg">
<rect x="0.971436" y="0.97168" width="23.3155" height="23.3156" rx="3" fill="#87B95B"/>
<path d="M20.1416 0H4.85787C3.56992 0.00144251 2.33514 0.513718 1.42443 1.42444C0.513712 2.33515 0.00143994 3.56994 0 4.85789V20.1421C0.00143994 21.4301 0.513712 22.6648 1.42443 23.5756C2.33514 24.4863 3.56992 24.9986 4.85787 25H20.1416C21.4296 24.9986 22.6645 24.4863 23.5753 23.5756C24.4861 22.6649 24.9985 21.4301 25 20.1421V4.85789C24.9985 3.56988 24.4861 2.33509 23.5753 1.42438C22.6645 0.513668 21.4296 0.0014166 20.1416 0ZM23.057 20.1421C23.0561 20.915 22.7486 21.6559 22.202 22.2024C21.6555 22.7489 20.9145 23.0562 20.1416 23.057H4.85787C4.08507 23.0561 3.3442 22.7487 2.79775 22.2022C2.2513 21.6558 1.94389 20.9149 1.94296 20.1421V4.85789C1.94389 4.08509 2.2513 3.34421 2.79775 2.79776C3.3442 2.2513 4.08507 1.9439 4.85787 1.94296H20.1416C20.9145 1.94379 21.6555 2.25115 22.202 2.79761C22.7486 3.34407 23.0561 4.08501 23.057 4.85789V20.1421Z" fill="black"/>
<g clip-path="url(#clip0_1023_6781)">
<path d="M12.3574 3.85742C7.67188 3.85742 3.85742 7.67188 3.85742 12.3574C3.85742 17.043 7.67188 20.8574 12.3574 20.8574C17.043 20.8574 20.8574 17.043 20.8574 12.3574C20.8574 7.67188 17.043 3.85742 12.3574 3.85742ZM12.3574 19.0977C8.64131 19.0977 5.61713 16.0735 5.61713 12.3574C5.61713 8.64131 8.64131 5.61713 12.3574 5.61713C16.0735 5.61713 19.0977 8.64131 19.0977 12.3574C19.0977 16.0735 16.0735 19.0977 12.3574 19.0977Z" fill="black"/>
<path d="M13.808 11.8798C13.3971 11.6515 12.9615 11.4829 12.5295 11.3038C12.2801 11.2019 12.0413 11.079 11.8305 10.9104C11.4161 10.5767 11.4934 10.0393 11.9816 9.82507C12.1186 9.76536 12.2626 9.74429 12.4101 9.73726C12.9756 9.70565 13.5095 9.81102 14.0223 10.0569C14.2752 10.1798 14.3595 10.1412 14.4473 9.87776C14.5386 9.59677 14.6159 9.31226 14.6967 9.03127C14.7529 8.8416 14.6826 8.71516 14.5035 8.63788C14.1768 8.49388 13.8396 8.3885 13.4849 8.33582C13.0248 8.26206 13.0248 8.26206 13.0212 7.79842C13.0177 7.1416 13.0177 7.1416 12.3644 7.14512C12.2696 7.14512 12.1748 7.1416 12.0799 7.14512C11.7743 7.15565 11.7217 7.20834 11.7146 7.51392C11.7111 7.6509 11.7146 7.7914 11.7146 7.92838C11.7111 8.33933 11.7111 8.33231 11.3177 8.4728C10.3694 8.81702 9.78282 9.4633 9.7196 10.4995C9.6634 11.4162 10.1411 12.0344 10.8927 12.484C11.3564 12.7614 11.8692 12.9265 12.3609 13.1443C12.5541 13.2286 12.7367 13.3269 12.8948 13.4604C13.369 13.8503 13.2812 14.5001 12.7192 14.7459C12.4171 14.8759 12.101 14.911 11.7779 14.8689C11.2756 14.8057 10.7944 14.6757 10.3448 14.4404C10.0814 14.3034 10.0041 14.3385 9.91278 14.6265C9.83551 14.8759 9.76526 15.1253 9.69852 15.3747C9.6072 15.7119 9.63881 15.7926 9.96195 15.9472C10.3694 16.1439 10.8084 16.2457 11.2545 16.3195C11.6022 16.3757 11.6163 16.3897 11.6198 16.7515C11.6198 16.9166 11.6233 17.0817 11.6233 17.2433C11.6268 17.4505 11.7252 17.5699 11.9394 17.5734C12.1818 17.5769 12.4241 17.5769 12.6665 17.5734C12.8632 17.5699 12.9651 17.461 12.9686 17.2608C12.9686 17.036 12.9791 16.8112 12.9721 16.5864C12.9615 16.3581 13.0599 16.2422 13.2812 16.1825C13.787 16.0455 14.219 15.7716 14.5527 15.3676C15.4659 14.2437 15.1146 12.6034 13.808 11.8798Z" fill="black"/>
</g>
<defs>
<clipPath id="clip0_1023_6781">
<rect width="17" height="17" fill="white" transform="translate(3.85742 3.85742)"/>
</clipPath>
</defs>
</svg>
