<svg width="25" height="25" viewBox="0 0 25 25" fill="none" xmlns="http://www.w3.org/2000/svg">
<rect x="0.971436" y="0.97168" width="23.3155" height="23.3156" rx="3" fill="#FF928E"/>
<path d="M20.1416 0H4.85787C3.56992 0.00144251 2.33514 0.513718 1.42443 1.42444C0.513712 2.33515 0.00143994 3.56994 0 4.85789V20.1421C0.00143994 21.4301 0.513712 22.6648 1.42443 23.5756C2.33514 24.4863 3.56992 24.9986 4.85787 25H20.1416C21.4296 24.9986 22.6645 24.4863 23.5753 23.5756C24.4861 22.6649 24.9985 21.4301 25 20.1421V4.85789C24.9985 3.56988 24.4861 2.33509 23.5753 1.42438C22.6645 0.513668 21.4296 0.0014166 20.1416 0ZM23.057 20.1421C23.0561 20.915 22.7486 21.6559 22.202 22.2024C21.6555 22.7489 20.9145 23.0562 20.1416 23.057H4.85787C4.08507 23.0561 3.3442 22.7487 2.79775 22.2022C2.2513 21.6558 1.94389 20.9149 1.94296 20.1421V4.85789C1.94389 4.08509 2.2513 3.34421 2.79775 2.79776C3.3442 2.2513 4.08507 1.9439 4.85787 1.94296H20.1416C20.9145 1.94379 21.6555 2.25115 22.202 2.79761C22.7486 3.34407 23.0561 4.08501 23.057 4.85789V20.1421Z" fill="black"/>
<path d="M13.0206 20.9996C10.9487 20.9996 8.96161 20.3484 7.49653 19.1893C6.03145 18.0302 5.20837 16.4581 5.20837 14.8188C5.22386 13.1504 5.95364 11.5354 7.27862 10.2373C8.82316 8.65528 9.69488 6.72692 9.76877 4.72873C9.77782 4.60281 9.8257 4.48056 9.90822 4.37266C9.99074 4.26475 10.1054 4.17447 10.2422 4.10969C10.379 4.04491 10.5337 4.00761 10.6929 4.00105C10.8521 3.99448 11.0109 4.01885 11.1554 4.07202C12.7939 4.62999 14.2139 5.52456 15.2682 6.66297C16.3225 7.80138 16.9727 9.14219 17.1513 10.5464C17.3769 10.3054 17.57 10.0465 17.7275 9.77378C17.7878 9.64184 17.8924 9.52539 18.03 9.43692C18.1677 9.34844 18.3331 9.29129 18.5087 9.2716C18.6852 9.25245 18.8649 9.27184 19.0284 9.32767C19.1919 9.3835 19.333 9.47365 19.4364 9.58836C19.5829 9.72743 20.8329 11.2108 20.8329 14.8188C20.8446 15.6331 20.6506 16.441 20.2622 17.1951C19.8738 17.9492 19.2988 18.6343 18.571 19.2101C17.8432 19.7859 16.9773 20.2408 16.0241 20.5481C15.071 20.8554 14.0498 21.0089 13.0206 20.9996ZM11.5656 6.01124C11.2397 7.86271 10.3222 9.61778 8.89966 11.1104C7.78988 12.1476 7.17481 13.4599 7.16144 14.8188C7.16144 16.0483 7.77874 17.2273 8.87755 18.0967C9.97636 18.966 11.4667 19.4544 13.0206 19.4544C13.7948 19.4681 14.5645 19.3576 15.2832 19.1295C16.0019 18.9014 16.6547 18.5605 17.2023 18.1272C17.7499 17.694 18.1808 17.1775 18.4691 16.6089C18.7575 16.0403 18.8971 15.4313 18.8798 14.8188C18.9001 13.7786 18.7557 12.7404 18.4501 11.7284C17.937 12.24 17.3238 12.6834 16.6338 13.0419C16.4751 13.123 16.2901 13.166 16.1012 13.1656C15.9122 13.1653 15.7275 13.1215 15.5693 13.0398C15.4112 12.958 15.2864 12.8417 15.2102 12.7049C15.1339 12.5681 15.1094 12.4168 15.1397 12.2693C15.4259 11.0621 15.2366 9.81454 14.5973 8.69529C13.9581 7.57604 12.8998 6.63911 11.5656 6.01124Z" fill="#231111"/>
</svg>
