<svg width="25" height="25" viewBox="0 0 25 25" fill="none" xmlns="http://www.w3.org/2000/svg">
<rect x="0.971436" y="0.97168" width="23.3155" height="23.3156" rx="3" fill="#5DCDAA"/>
<path d="M20.1416 0H4.85787C3.56992 0.00144251 2.33514 0.513718 1.42443 1.42444C0.513712 2.33515 0.00143994 3.56994 0 4.85789V20.1421C0.00143994 21.4301 0.513712 22.6648 1.42443 23.5756C2.33514 24.4863 3.56992 24.9986 4.85787 25H20.1416C21.4296 24.9986 22.6645 24.4863 23.5753 23.5756C24.4861 22.6649 24.9985 21.4301 25 20.1421V4.85789C24.9985 3.56988 24.4861 2.33509 23.5753 1.42438C22.6645 0.513668 21.4296 0.0014166 20.1416 0ZM23.057 20.1421C23.0561 20.915 22.7486 21.6559 22.202 22.2024C21.6555 22.7489 20.9145 23.0562 20.1416 23.057H4.85787C4.08507 23.0561 3.3442 22.7487 2.79775 22.2022C2.2513 21.6558 1.94389 20.9149 1.94296 20.1421V4.85789C1.94389 4.08509 2.2513 3.34421 2.79775 2.79776C3.3442 2.2513 4.08507 1.9439 4.85787 1.94296H20.1416C20.9145 1.94379 21.6555 2.25115 22.202 2.79761C22.7486 3.34407 23.0561 4.08501 23.057 4.85789V20.1421Z" fill="black"/>
<path d="M12.5083 4H12.4917C10.2396 4 8.07967 4.79723 6.48717 6.21632C4.89466 7.6354 4 9.56009 4 11.567C4 12.659 4.2967 13.8192 4.88141 15.0149C5.38287 16.0404 6.08278 17.0698 6.96182 18.0736C8.49225 19.8234 10.4235 21.3193 11.8821 21.885C12.0785 21.9609 12.2903 22 12.5043 22C12.7184 22 12.9301 21.9609 13.1265 21.885C14.584 21.3193 16.5137 19.8234 18.0425 18.0732C18.9204 17.0688 19.6207 16.0394 20.1202 15.0145C20.7041 13.8192 21 12.659 21 11.567C21 9.56009 20.1053 7.6354 18.5128 6.21632C16.9203 4.79723 14.7604 4 12.5083 4ZM16.8597 17.2544C15.2914 19.0475 13.5152 20.278 12.528 20.6619C12.5127 20.6675 12.4956 20.6675 12.4803 20.6619C11.071 20.1152 9.24503 18.5124 8.14426 17.2541C6.43866 15.3046 5.50084 13.2851 5.50084 11.568C5.49926 8.13137 8.63626 5.33599 12.4917 5.33599H12.5083C16.3641 5.33599 19.5007 8.13137 19.5007 11.567C19.5007 13.2844 18.5629 15.3039 16.8597 17.2544Z" fill="black"/>
<path d="M12.5 8.33008C11.8101 8.33008 11.1357 8.51238 10.5621 8.85392C9.98845 9.19546 9.54137 9.68091 9.27736 10.2489C9.01335 10.8168 8.94428 11.4418 9.07887 12.0448C9.21346 12.6477 9.54567 13.2016 10.0335 13.6363C10.5213 14.071 11.1428 14.367 11.8195 14.4869C12.4961 14.6069 13.1975 14.5453 13.8348 14.31C14.4722 14.0748 15.017 13.6764 15.4003 13.1652C15.7835 12.6541 15.9881 12.0531 15.9881 11.4384C15.9871 10.6143 15.6192 9.82422 14.9653 9.2415C14.3114 8.65879 13.4248 8.33101 12.5 8.33008ZM12.5 13.2117C12.1066 13.2117 11.7221 13.1078 11.395 12.913C11.0679 12.7182 10.813 12.4414 10.6625 12.1176C10.5119 11.7937 10.4726 11.4373 10.5493 11.0935C10.6261 10.7497 10.8156 10.4339 11.0938 10.1861C11.372 9.93825 11.7264 9.76948 12.1122 9.70113C12.498 9.63279 12.898 9.66794 13.2614 9.80213C13.6248 9.93633 13.9354 10.1635 14.1539 10.455C14.3724 10.7465 14.4889 11.0892 14.4889 11.4398C14.4882 11.9096 14.2785 12.36 13.9056 12.6922C13.5328 13.0244 13.0272 13.2112 12.5 13.2117Z" fill="black"/>
</svg>
