<svg width="25" height="25" viewBox="0 0 25 25" fill="none" xmlns="http://www.w3.org/2000/svg">
<rect x="0.971436" y="0.97168" width="23.3155" height="23.3156" rx="3" fill="#4E92CA"/>
<path d="M20.1416 0H4.85787C3.56992 0.00144251 2.33514 0.513718 1.42443 1.42444C0.513712 2.33515 0.00143994 3.56994 0 4.85789V20.1421C0.00143994 21.4301 0.513712 22.6648 1.42443 23.5756C2.33514 24.4863 3.56992 24.9986 4.85787 25H20.1416C21.4296 24.9986 22.6645 24.4863 23.5753 23.5756C24.4861 22.6649 24.9985 21.4301 25 20.1421V4.85789C24.9985 3.56988 24.4861 2.33509 23.5753 1.42438C22.6645 0.513668 21.4296 0.0014166 20.1416 0ZM23.057 20.1421C23.0561 20.915 22.7486 21.6559 22.202 22.2024C21.6555 22.7489 20.9145 23.0562 20.1416 23.057H4.85787C4.08507 23.0561 3.3442 22.7487 2.79775 22.2022C2.2513 21.6558 1.94389 20.9149 1.94296 20.1421V4.85789C1.94389 4.08509 2.2513 3.34421 2.79775 2.79776C3.3442 2.2513 4.08507 1.9439 4.85787 1.94296H20.1416C20.9145 1.94379 21.6555 2.25115 22.202 2.79761C22.7486 3.34407 23.0561 4.08501 23.057 4.85789V20.1421Z" fill="black"/>
<path d="M21.7926 13.5212C21.6413 13.2608 21.3943 13.162 21.2142 13.0898C21.2085 13.0874 21.2027 13.0851 21.1965 13.0827C21.3145 12.938 21.4606 12.7241 21.4152 12.4489C21.3874 12.1894 21.183 12.0001 20.9183 12.0001C20.8645 12.0001 20.8156 12.0072 20.7702 12.016C20.6787 11.8616 20.5415 11.6104 20.4497 11.442L20.3267 11.2177C20.2501 11.0796 20.108 10.994 19.9542 10.994L19.9265 10.9949C19.7341 10.9825 19.5394 10.9896 19.3544 10.997C19.2612 11.0009 19.1706 11.0044 19.0857 11.0044C18.9281 11.0044 18.8581 10.9896 18.8292 10.9798C18.8218 10.9366 18.8129 10.8065 18.8904 10.5082C18.9067 10.494 18.9327 10.4736 18.9518 10.4591C19.0485 10.3848 19.1926 10.2742 19.2635 10.0792C19.3155 9.94927 19.3132 9.80695 19.2563 9.68298C19.234 9.63445 19.2063 9.59421 19.1757 9.56048C19.1974 9.52054 19.2212 9.47941 19.2452 9.43769C19.3164 9.3143 19.395 9.17731 19.4556 9.02227C19.4633 9.01605 19.4713 9.01013 19.4791 9.00392C19.7784 8.76573 19.8656 8.51186 19.7378 8.24971C19.7258 8.22515 19.7115 8.20148 19.6955 8.17988C19.0185 7.26264 18.0247 7.1286 17.2261 7.0209C17.0778 7.00107 16.9331 6.98154 16.7839 6.95551C16.6858 6.80579 16.5488 6.38326 16.4799 6.17052C16.3098 5.64503 16.1975 5.29796 15.8224 5.29796C15.7906 5.29796 15.7546 5.30239 15.7212 5.31009C15.5882 5.34056 15.4773 5.38228 15.3849 5.43081C15.3606 5.35062 15.3146 5.27488 15.2463 5.20386C15.2337 5.19085 15.22 5.17842 15.206 5.16688C15.0685 5.05592 14.9201 5 14.7651 5C14.4552 5 14.2528 5.216 14.1035 5.39471C14.0958 5.37844 14.0867 5.36216 14.0767 5.34589C14.0092 5.237 13.902 5.16333 13.7796 5.13907C13.5863 5.08285 13.4245 5.05533 13.2853 5.05533C12.9668 5.05533 12.7938 5.20091 12.7049 5.32281C12.5562 5.52668 12.5594 5.76634 12.5977 5.97553C12.4765 5.97613 12.3587 6.03057 12.2761 6.1288C12.2417 6.16963 12.2157 6.2155 12.1983 6.26432C12.1706 6.24153 12.142 6.21727 12.1117 6.19094C11.9493 6.05128 11.7131 6.05424 11.5544 6.19804C11.4732 6.27172 11.3886 6.35752 11.3006 6.44747C11.0984 6.65341 10.852 6.90491 10.6596 6.94929C10.6739 6.6469 10.4686 6.51168 10.3848 6.46848C10.181 6.36995 9.94911 6.32172 9.67607 6.32172C9.51139 6.32172 9.35129 6.33888 9.21034 6.35368C9.10141 6.36521 8.99706 6.37735 8.90214 6.37735C8.83952 6.37735 8.80693 6.37113 8.80036 6.3735C8.78949 6.34657 8.76062 6.24893 8.77891 6.00216C8.78492 5.92198 8.76976 5.84179 8.73488 5.76989L8.62624 5.54472C8.53275 5.35122 8.3189 5.25594 8.11791 5.31837C7.4206 5.53792 6.68354 5.9782 5.97108 6.40398C5.36268 6.76762 4.78773 7.11144 4.3686 7.23157C4.29684 7.25198 4.23165 7.29163 4.17905 7.34607L4.12473 7.40259C4.02981 7.50141 3.98521 7.64048 4.00436 7.77836C4.01751 7.87393 4.02981 7.98992 4.04353 8.12011C4.1536 9.15867 4.35917 11.0914 5.79125 11.0914C6.18636 11.0914 6.45196 10.8044 6.64609 10.5952C6.67411 10.5647 6.70985 10.5263 6.74215 10.4937C6.87367 10.6455 6.88825 11.0429 6.90054 11.3713C6.91255 11.7009 6.92427 12.0125 7.0312 12.232C7.29137 12.8599 7.89262 12.851 8.09761 12.8599C8.16909 12.8599 8.2417 12.8572 8.31375 12.8543C8.37379 12.8519 8.43326 12.8492 8.49158 12.8492C8.63739 12.8492 8.6757 12.8664 8.67342 12.8632C8.67342 12.8632 8.68428 12.8797 8.69686 12.9448C8.69915 12.9741 8.68085 13.0596 8.66855 13.1164C8.63453 13.275 8.59193 13.4727 8.64397 13.6872C8.76633 14.1929 9.33785 14.2159 9.94253 14.2399C10.2307 14.2514 10.9683 14.281 11.0736 14.4447C11.0493 14.4976 10.9869 14.5864 10.9469 14.6429C10.8205 14.8225 10.665 15.0438 10.6484 15.3323C10.6201 15.5119 10.6599 15.7347 10.9226 15.9194C10.9135 15.9303 10.9043 15.941 10.896 15.951C10.8185 16.0436 10.7305 16.1484 10.653 16.2821C10.6473 16.2919 10.6418 16.3019 10.637 16.3126C10.5546 16.483 10.5649 16.6842 10.6644 16.8505C10.926 17.2881 11.762 17.4053 12.2146 17.4053C12.63 17.4053 13.2038 17.3254 13.6275 16.9671C13.6921 17.1437 13.8216 17.2576 13.9134 17.3316C13.9045 17.347 13.8957 17.3621 13.8883 17.3748C13.7785 17.5636 13.526 17.9977 13.8474 18.3699C14.097 18.7214 14.4967 18.7525 14.7914 18.7755C14.9006 18.7838 15.013 18.7927 15.0976 18.8155C15.1279 18.8563 15.1631 18.9214 15.1948 18.9809C15.2752 19.1312 15.3752 19.3179 15.5576 19.4593L15.5582 19.4587C15.6025 19.4925 15.6557 19.5194 15.71 19.5363C15.7237 19.6395 15.7703 19.7422 15.8392 19.8132C15.8587 19.8333 15.8807 19.8517 15.9036 19.8679C16.052 19.9703 16.2089 19.9913 16.3264 19.9999C16.3267 20.0227 16.3264 20.0455 16.3261 20.0653C16.3238 20.2843 16.3196 20.737 16.7275 20.9186C16.8379 20.9728 16.958 21 17.0841 21C17.2888 21 17.4703 20.9293 17.6304 20.8671C17.7371 20.8254 17.8451 20.7816 17.9332 20.784C17.9532 20.787 17.9735 20.7884 17.9938 20.7884C18.0887 20.7884 18.2205 20.834 18.348 20.8784C18.4612 20.918 18.5856 20.9065 18.6902 20.847C18.7697 20.8021 18.8326 20.7325 18.8712 20.6491C19.1057 20.5858 19.2317 20.4393 19.2918 20.3428C19.5811 19.8777 19.2861 19.2081 18.9741 18.4995C18.8658 18.2533 18.7054 17.8885 18.6854 17.7459C18.9147 17.1289 19.4888 16.2277 19.7504 16.1507C19.7615 16.1632 19.7798 16.1859 19.8021 16.2262C19.8853 16.375 20.038 16.4605 20.2101 16.4457C20.3756 16.4309 20.518 16.3185 20.5755 16.1569C20.6924 15.8294 20.976 15.5906 21.2505 15.3598C21.6831 14.9965 22.3383 14.4455 21.7926 13.5212ZM20.7084 14.6722C20.4994 14.8482 20.2578 15.0512 20.0586 15.3184C19.9456 15.272 19.843 15.2604 19.7681 15.2604C18.7123 15.2604 17.87 17.4659 17.8583 17.4997C17.7451 17.8512 17.9329 18.2782 18.1928 18.8684C18.304 19.1211 18.4944 19.5534 18.5416 19.7898C18.4266 19.7878 18.3094 19.8398 18.2294 19.9253C18.163 19.9126 18.0936 19.9046 18.0221 19.9026C17.7614 19.8727 17.5149 19.965 17.3276 20.0378C17.2813 20.0561 17.2287 20.0762 17.1824 20.0916C17.1827 20.086 17.1827 20.081 17.1827 20.076C17.1847 19.8848 17.1873 19.6229 17.042 19.4232C16.9674 19.3072 16.8742 19.2368 16.7799 19.1933C16.7727 19.1525 16.7596 19.1128 16.7415 19.0756C16.6729 18.9335 16.5689 18.7184 16.331 18.5959C16.2106 18.5341 16.0637 18.5294 15.949 18.5631C15.947 18.5595 15.9453 18.5566 15.9433 18.553C15.863 18.4027 15.7629 18.216 15.5805 18.0746C15.5531 18.0536 15.5236 18.0358 15.4922 18.0219C15.2749 17.9258 15.0513 17.908 14.8543 17.8926C14.7814 17.887 14.6748 17.8787 14.6036 17.8657C14.6096 17.8547 14.6159 17.8444 14.6216 17.8349C14.7125 17.6784 14.826 17.4834 14.826 17.2455C14.826 17.2091 14.8217 17.173 14.8131 17.1378C14.752 16.8848 14.5747 16.741 14.4655 16.6546C14.4855 16.6046 14.5167 16.546 14.545 16.4919C14.5967 16.3948 14.6539 16.2865 14.6908 16.162C14.7056 16.1404 14.7251 16.1194 14.7425 16.0984C15.103 15.6646 14.9389 15.3749 14.8089 15.2406C14.8014 15.2332 14.7934 15.2255 14.7854 15.2184C14.6224 15.0734 14.4578 15.0429 14.3491 15.0429C13.9277 15.0429 13.679 15.4359 13.4382 15.8161C13.337 15.9759 13.2224 16.1567 13.1243 16.2442C12.9422 16.4194 12.61 16.52 12.2129 16.52C11.975 16.52 11.7689 16.4851 11.6171 16.444C11.7463 16.2815 11.8841 16.0694 11.8841 15.78C11.8841 15.5066 11.7045 15.3551 11.5662 15.2734C11.5908 15.2359 11.6179 15.1968 11.6391 15.1672C11.7726 14.977 11.9387 14.7408 11.9387 14.4275C11.9387 14.41 11.9378 14.3929 11.9358 14.3754C11.828 13.4292 10.7125 13.3845 9.97427 13.3552C9.83103 13.3493 9.6389 13.3416 9.5011 13.3256C9.50224 13.3203 9.50339 13.3156 9.50424 13.3108C9.53827 13.1519 9.58087 12.9546 9.53426 12.7658C9.43734 12.2332 9.08597 11.9634 8.48987 11.9634C8.42096 11.9634 8.35006 11.966 8.27887 11.969C8.21797 11.9714 8.15651 11.974 8.09589 11.974C7.85488 11.974 7.83773 11.9323 7.80713 11.8607C7.77225 11.7867 7.76253 11.5175 7.75596 11.3393C7.73509 10.7721 7.70335 9.91732 6.99518 9.62232C6.91083 9.58238 6.82192 9.56196 6.73043 9.56196C6.41508 9.56196 6.19894 9.79541 6.0254 9.98271C5.9585 10.0549 5.83299 10.1904 5.79039 10.2049C5.12681 10.2049 4.97614 8.78644 4.89523 8.02424C4.8938 8.01123 4.89237 7.9985 4.89094 7.98578C5.34724 7.80233 5.86101 7.4955 6.39907 7.17387C6.90998 6.86852 7.43432 6.55517 7.92178 6.33947C7.94208 6.56375 8.00641 6.79839 8.17023 6.98125C8.42525 7.26619 8.78377 7.26619 8.90156 7.26619C9.03222 7.26619 9.16688 7.25169 9.29754 7.23778C9.44878 7.2218 9.60946 7.20583 9.74412 7.21204C9.7484 7.33069 9.78643 7.46265 9.90022 7.58012C9.92023 7.60054 9.94196 7.61918 9.9654 7.63545C10.1672 7.77452 10.3817 7.84494 10.6027 7.84494C11.1325 7.84494 11.5376 7.45171 11.8652 7.11854C12.2332 7.39342 12.4224 7.43662 12.5591 7.43662C12.6423 7.43662 12.7203 7.41798 12.7915 7.38099C12.8075 7.3727 12.823 7.36353 12.8379 7.35318C12.9285 7.29074 13.0769 7.15434 13.1189 6.91349C13.2527 6.89278 13.3702 6.82236 13.4497 6.71318C13.5246 6.6105 13.5517 6.50043 13.5537 6.39066C13.8194 6.53772 14.1098 6.51109 14.3137 6.39362C14.3463 6.43741 14.3863 6.47617 14.4323 6.50783C14.4449 6.51671 14.4581 6.5247 14.4715 6.5318C14.9081 6.76762 15.0936 6.83981 15.2643 6.83981C15.3272 6.83981 15.5805 6.82354 15.7049 6.57233C15.907 7.19162 16.1131 7.75055 16.552 7.81505C16.7304 7.84967 16.9199 7.87571 17.1149 7.90175C17.7388 7.98578 18.3332 8.06596 18.7803 8.46334C18.75 8.50003 18.7217 8.54145 18.6988 8.58939C18.6897 8.60832 18.6817 8.62785 18.6751 8.64797C18.6422 8.75123 18.5767 8.86426 18.5078 8.9841C18.3949 9.17997 18.2674 9.40189 18.2237 9.6738C18.2197 9.69807 18.2177 9.72233 18.2177 9.74689C18.2177 9.7889 18.2231 9.85134 18.2471 9.91909C18.1725 10.0016 18.1039 10.1085 18.0704 10.2472C17.9704 10.6162 17.8694 11.1503 18.1445 11.5255C18.4135 11.8929 18.8847 11.8929 19.0857 11.8929C19.1814 11.8929 19.2829 11.8888 19.3881 11.8847C19.4896 11.8805 19.5928 11.8776 19.7012 11.8764L19.7029 11.8793C20.0194 12.459 20.1615 12.7191 20.3105 12.8276C20.2438 12.9564 20.203 13.1123 20.2461 13.2931C20.249 13.3046 20.2521 13.3162 20.2556 13.3274C20.3785 13.7073 20.7079 13.839 20.9048 13.918C20.9612 13.9405 21.0466 13.9745 21.0587 13.9813C21.1913 14.2056 21.2153 14.2461 20.7084 14.6722Z" fill="black"/>
</svg>
