<svg width="25" height="25" viewBox="0 0 25 25" fill="none" xmlns="http://www.w3.org/2000/svg">
<rect x="0.713867" y="0.97168" width="23.3155" height="23.3156" rx="3" fill="#F2A1FE"/>
<path d="M20.1416 0H4.85787C3.56992 0.00144251 2.33514 0.513718 1.42443 1.42444C0.513712 2.33515 0.00143994 3.56994 0 4.85788V20.1421C0.00143994 21.4301 0.513712 22.6648 1.42443 23.5756C2.33514 24.4863 3.56992 24.9986 4.85787 25H20.1416C21.4296 24.9986 22.6645 24.4863 23.5753 23.5756C24.4861 22.6649 24.9985 21.4301 25 20.1421V4.85788C24.9985 3.56988 24.4861 2.33508 23.5753 1.42438C22.6645 0.513667 21.4296 0.0014166 20.1416 0ZM23.057 20.1421C23.0561 20.915 22.7486 21.6559 22.202 22.2024C21.6555 22.7489 20.9145 23.0562 20.1416 23.057H4.85787C4.08507 23.0561 3.3442 22.7487 2.79775 22.2022C2.2513 21.6558 1.94389 20.9149 1.94296 20.1421V4.85788C1.94389 4.08509 2.2513 3.34421 2.79775 2.79775C3.3442 2.2513 4.08507 1.9439 4.85787 1.94296H20.1416C20.9145 1.94379 21.6555 2.25115 22.202 2.79761C22.7486 3.34407 23.0561 4.08501 23.057 4.85788V20.1421Z" fill="black"/>
<path d="M19.9765 6.70064C20.0922 6.54833 20.0922 6.39601 20.0151 6.2437C19.8993 6.09139 19.7065 6 19.5136 6H5.58826C5.35681 6 5.16394 6.09139 5.08679 6.2437C4.97107 6.39601 4.97107 6.57879 5.08679 6.70064L11.953 14.9864V19.4035H8.51991V20.3174H16.582V19.4035H13.1488V14.9864L19.9765 6.70064ZM12.5316 14.0116L8.71278 9.4118H16.3119L12.5316 14.0116ZM18.3949 6.91388L17.0834 8.49793H7.97987L6.66834 6.91388H18.3949Z" fill="black"/>
<path d="M14.1404 16.6464C14.1404 16.2336 14.2244 15.9084 14.3924 15.6708C14.5604 15.4332 14.8244 15.3144 15.1844 15.3144C15.5444 15.3144 15.8084 15.4332 15.9764 15.6708C16.1468 15.9084 16.232 16.2336 16.232 16.6464C16.232 17.064 16.148 17.3916 15.98 17.6292C15.812 17.8668 15.5468 17.9856 15.1844 17.9856C14.822 17.9856 14.5568 17.8668 14.3888 17.6292C14.2232 17.3916 14.1404 17.064 14.1404 16.6464ZM15.5336 16.6464C15.5336 16.4304 15.5108 16.266 15.4652 16.1532C15.4196 16.038 15.326 15.9804 15.1844 15.9804C15.0428 15.9804 14.9492 16.038 14.9036 16.1532C14.858 16.266 14.8352 16.4304 14.8352 16.6464C14.8352 16.8672 14.8568 17.0352 14.9 17.1504C14.9456 17.2632 15.0404 17.3196 15.1844 17.3196C15.3284 17.3196 15.422 17.2632 15.4652 17.1504C15.5108 17.0352 15.5336 16.8672 15.5336 16.6464ZM16.8736 18.0288C16.7488 18.0288 16.648 17.9952 16.5712 17.928C16.4968 17.8584 16.4596 17.7708 16.4596 17.6652C16.4596 17.5596 16.4968 17.472 16.5712 17.4024C16.648 17.3328 16.7488 17.298 16.8736 17.298C16.996 17.298 17.0944 17.3328 17.1688 17.4024C17.2456 17.472 17.284 17.5596 17.284 17.6652C17.284 17.7684 17.2456 17.8548 17.1688 17.9244C17.0944 17.994 16.996 18.0288 16.8736 18.0288ZM17.5172 16.6464C17.5172 16.2336 17.6012 15.9084 17.7692 15.6708C17.9372 15.4332 18.2012 15.3144 18.5612 15.3144C18.9212 15.3144 19.1852 15.4332 19.3532 15.6708C19.5236 15.9084 19.6088 16.2336 19.6088 16.6464C19.6088 17.064 19.5248 17.3916 19.3568 17.6292C19.1888 17.8668 18.9236 17.9856 18.5612 17.9856C18.1988 17.9856 17.9336 17.8668 17.7656 17.6292C17.6 17.3916 17.5172 17.064 17.5172 16.6464ZM18.9104 16.6464C18.9104 16.4304 18.8876 16.266 18.842 16.1532C18.7964 16.038 18.7028 15.9804 18.5612 15.9804C18.4196 15.9804 18.326 16.038 18.2804 16.1532C18.2348 16.266 18.212 16.4304 18.212 16.6464C18.212 16.8672 18.2336 17.0352 18.2768 17.1504C18.3224 17.2632 18.4172 17.3196 18.5612 17.3196C18.7052 17.3196 18.7988 17.2632 18.842 17.1504C18.8876 17.0352 18.9104 16.8672 18.9104 16.6464ZM19.8004 16.0452C19.8004 15.8412 19.858 15.6852 19.9732 15.5772C20.0884 15.4692 20.2396 15.4152 20.4268 15.4152C20.6116 15.4152 20.7616 15.4692 20.8768 15.5772C20.992 15.6852 21.0496 15.8412 21.0496 16.0452C21.0496 16.2468 20.992 16.4028 20.8768 16.5132C20.7616 16.6212 20.6116 16.6752 20.4268 16.6752C20.242 16.6752 20.0908 16.6212 19.9732 16.5132C19.858 16.4028 19.8004 16.2468 19.8004 16.0452ZM22.3564 15.4548L20.992 18H20.3152L21.6796 15.4548H22.3564ZM20.4232 15.8292C20.3248 15.8292 20.2756 15.9012 20.2756 16.0452C20.2756 16.1892 20.3248 16.2612 20.4232 16.2612C20.4712 16.2612 20.5084 16.2432 20.5348 16.2072C20.5636 16.1712 20.578 16.1172 20.578 16.0452C20.578 15.9732 20.5636 15.9192 20.5348 15.8832C20.5084 15.8472 20.4712 15.8292 20.4232 15.8292ZM21.622 17.406C21.622 17.2044 21.6796 17.0496 21.7948 16.9416C21.9124 16.8312 22.0636 16.776 22.2484 16.776C22.4332 16.776 22.582 16.8312 22.6948 16.9416C22.81 17.0496 22.8676 17.2044 22.8676 17.406C22.8676 17.61 22.81 17.7672 22.6948 17.8776C22.582 17.9856 22.4332 18.0396 22.2484 18.0396C22.0636 18.0396 21.9124 17.9856 21.7948 17.8776C21.6796 17.7672 21.622 17.61 21.622 17.406ZM22.2448 17.19C22.144 17.19 22.0936 17.262 22.0936 17.406C22.0936 17.5524 22.144 17.6256 22.2448 17.6256C22.2904 17.6256 22.3264 17.6076 22.3528 17.5716C22.3816 17.5332 22.396 17.478 22.396 17.406C22.396 17.3364 22.3816 17.2836 22.3528 17.2476C22.3264 17.2092 22.2904 17.19 22.2448 17.19Z" fill="black"/>
</svg>
