<svg width="64" height="61" viewBox="0 0 64 61" fill="none" xmlns="http://www.w3.org/2000/svg">
<path fill-rule="evenodd" clip-rule="evenodd" d="M22.8032 44.6264L22.2638 45.2968L22.2631 45.2974C21.1967 46.6204 19.1934 46.8718 17.8015 45.8591L17.7996 45.8577L2.61476 34.7533C1.22533 33.7395 0.958417 31.8241 2.02546 30.5005L20.7593 7.223C21.3279 6.51648 22.1003 6.11615 23.0336 6.0451L23.0352 6.04498L33.3513 5.27447L33.3527 5.27435C34.5858 5.18381 35.7247 5.26143 36.7629 5.7358L40.4034 1.21223C40.7406 0.793242 41.3713 0.713942 41.8109 1.03545C42.2506 1.35683 42.3337 1.95798 41.9965 2.37697L38.356 6.90054C39.1063 7.73385 39.4801 8.76224 39.7077 9.9204L39.7079 9.92171C39.7079 9.92171 41.5988 19.6187 41.5983 19.6166C41.7008 20.1363 41.6696 20.6364 41.5082 21.1048C46.6357 23.5776 50.151 28.6466 50.151 34.498C50.151 37.4047 49.2836 40.1184 47.7819 42.4165L51.1851 45.564C52.0445 45.1746 53.1084 45.3089 53.8286 45.9751L61.9202 53.459C62.8449 54.3144 62.8676 55.7356 61.97 56.6172L59.0486 59.4867C58.151 60.3684 56.66 60.3895 55.735 59.5343L47.6434 52.0506C46.8979 51.3612 46.7386 50.3041 47.1748 49.4582L43.9233 46.4509C41.2814 48.3636 37.9861 49.4986 34.4127 49.4986C29.8165 49.4986 25.6806 47.6209 22.8032 44.6264ZM35.4948 7.31139C34.8789 7.12791 34.2122 7.13066 33.5073 7.18245L23.1931 7.95285C22.8482 7.97916 22.5624 8.12664 22.3522 8.38774L3.61868 31.6652L3.61818 31.6658C3.22464 32.1539 3.32303 32.86 3.83515 33.2336L3.83603 33.2344L19.0202 44.3382C19.5352 44.7125 20.2764 44.6209 20.671 44.1316L21.5096 43.0895C19.7226 40.656 18.6742 37.6937 18.6742 34.498C18.6742 26.2134 25.7205 19.4974 34.4127 19.4974C36.2431 19.4974 38.0006 19.7952 39.6348 20.3429C39.6533 20.2228 39.6503 20.0982 39.6251 19.9703L39.6247 19.9684L37.7341 10.2722C37.6039 9.61026 37.4339 8.99583 37.0879 8.47625L35.2871 10.7139C35.5281 11.065 35.6925 11.472 35.7545 11.9157L35.7547 11.918C35.9716 13.4987 34.8073 14.9457 33.1487 15.1562L33.1463 15.1566C31.4882 15.3632 29.967 14.2531 29.7461 12.6727L29.7459 12.6704C29.529 11.0903 30.6967 9.64004 32.3546 9.42965L32.3569 9.42929C32.8224 9.37128 33.2768 9.41721 33.6947 9.5483L35.4948 7.31139ZM46.6001 43.99C46.2387 44.411 45.8538 44.8129 45.4473 45.194L48.4918 48.0098L49.6821 46.8406L46.6001 43.99ZM33.3522 11.5064C33.1482 11.3641 32.8889 11.2934 32.6185 11.3267C32.0588 11.3984 31.664 11.8876 31.7365 12.4212C31.8117 12.9544 32.3253 13.3283 32.8849 13.2591C33.4438 13.1876 33.8365 12.7002 33.7639 12.1672C33.7276 11.9084 33.5884 11.6865 33.3907 11.5346C33.3845 11.5303 33.3783 11.5258 33.372 11.5213C33.3654 11.5164 33.3587 11.5114 33.3522 11.5064ZM34.4127 21.4111C26.8295 21.4111 20.682 27.2704 20.682 34.498C20.682 41.7257 26.8295 47.5849 34.4127 47.5849C41.9957 47.5849 48.1431 41.7257 48.1431 34.498C48.1431 27.2704 41.9957 21.4111 34.4127 21.4111ZM34.4126 22.7924C41.1953 22.7924 46.6939 28.0332 46.6939 34.498C46.6939 40.9628 41.1953 46.2036 34.4126 46.2036C27.6299 46.2036 22.1312 40.9628 22.1312 34.498C22.1312 28.0332 27.6299 22.7924 34.4126 22.7924ZM34.4126 24.7061C28.7388 24.7061 24.1391 29.0901 24.1391 34.498C24.1391 39.9058 28.7388 44.2898 34.4126 44.2898C40.0865 44.2898 44.6861 39.9058 44.6861 34.498C44.6861 29.0901 40.0865 24.7061 34.4126 24.7061ZM33.4078 27.8129V26.9982C33.4078 26.4702 33.8577 26.0414 34.4117 26.0414C34.9658 26.0414 35.4156 26.4702 35.4156 26.9982V27.8015C36.9014 28.0602 38.2933 28.9301 38.9971 30.526C39.2118 31.0128 38.9714 31.5742 38.4607 31.7789C37.9499 31.9835 37.3609 31.7544 37.1462 31.2675C36.4433 29.674 34.5739 29.3415 33.2288 29.8461C32.4287 30.1463 31.7961 30.7676 31.8414 31.6632C31.8779 32.3728 32.3513 32.784 32.9255 33.0516C33.4372 33.2901 34.0285 33.4249 34.5857 33.5123C36.7127 33.844 39.0673 34.7449 39.3761 37.1555L39.3762 37.1567C39.6803 39.5573 37.5622 40.8975 35.4156 41.2075V41.9978C35.4156 42.5259 34.9658 42.9547 34.4117 42.9547C33.8577 42.9547 33.4078 42.5259 33.4078 41.9978V41.1938C31.5576 40.8915 29.9356 39.7761 29.45 37.9164C29.3161 37.404 29.644 36.8843 30.1816 36.7568C30.7193 36.6292 31.2644 36.9417 31.3983 37.4541C31.7502 38.8014 33.169 39.3938 34.5499 39.3628C35.2817 39.3463 36.0957 39.1697 36.6959 38.7752C37.1546 38.4739 37.4631 38.0213 37.383 37.3867C37.2817 36.5982 36.7254 36.1584 36.07 35.8751C35.5041 35.6303 34.8624 35.4946 34.2615 35.4009L34.2605 35.4008C32.1875 35.0755 29.9564 34.1052 29.836 31.7562V31.7558C29.7455 29.9719 30.8998 28.6633 32.4934 28.0654C32.7859 27.9556 33.0928 27.871 33.4078 27.8129ZM57.6077 58.1541L60.5291 55.2844C60.6576 55.1582 60.6542 54.9547 60.5217 54.8322L52.4304 47.3486C52.2978 47.226 52.0843 47.2291 51.9558 47.3553L49.0343 50.2249C48.9058 50.3511 48.9091 50.5547 49.0415 50.6771L57.1329 58.1606C57.2655 58.2832 57.4791 58.2804 57.6077 58.1541Z" fill="black"/>
</svg>
