<svg width="25" height="25" viewBox="0 0 25 25" fill="none" xmlns="http://www.w3.org/2000/svg">
<rect x="0.971436" y="0.97168" width="23.3155" height="23.3156" rx="3" fill="#C3DC89"/>
<path d="M20.1421 0H4.85837C3.57037 0.0014166 2.33552 0.513667 1.42472 1.42438C0.513923 2.33508 0.00154796 3.56988 0 4.85788V20.1421C0.00154796 21.4301 0.513923 22.6649 1.42472 23.5756C2.33552 24.4863 3.57037 24.9986 4.85837 25H20.1421C21.4301 24.9986 22.6649 24.4863 23.5756 23.5756C24.4863 22.6648 24.9986 21.4301 25 20.1421V4.85788C24.9986 3.56994 24.4863 2.33515 23.5756 1.42443C22.6649 0.513714 21.4301 0.00143994 20.1421 0ZM23.057 20.1421C23.0561 20.9149 22.7487 21.6558 22.2022 22.2022C21.6558 22.7487 20.9149 23.0561 20.1421 23.057H4.85837C4.0855 23.0562 3.34451 22.7489 2.79795 22.2024C2.2514 21.6559 1.94392 20.915 1.94296 20.1421V4.85788C1.94392 4.08501 2.2514 3.34407 2.79795 2.79761C3.34451 2.25115 4.0855 1.94379 4.85837 1.94296H20.1421C20.9149 1.9439 21.6558 2.2513 22.2022 2.79775C22.7487 3.34421 23.0561 4.08509 23.057 4.85788V20.1421Z" fill="black"/>
<path d="M19.5728 9.57146C19.7226 8.9987 19.7201 8.3967 19.5653 7.82525C19.4105 7.2538 19.1089 6.73278 18.6905 6.31395C18.2721 5.89511 17.7514 5.59303 17.1801 5.4377C16.6088 5.28238 16.0068 5.27922 15.4339 5.42854C15.1394 4.91 14.7128 4.47877 14.1974 4.17877C13.682 3.87877 13.0964 3.72071 12.5001 3.7207C11.9037 3.72069 11.3181 3.87872 10.8027 4.1787C10.2873 4.47868 9.86069 4.9099 9.56619 5.42842C8.99217 5.26885 8.38606 5.26468 7.80991 5.41634C7.23375 5.568 6.70824 5.87004 6.28717 6.29154C5.86611 6.71305 5.56461 7.23887 5.41354 7.81518C5.26248 8.3915 5.26727 8.9976 5.42743 9.57146C4.91625 9.87042 4.49224 10.298 4.19759 10.8117C3.90294 11.3254 3.74791 11.9073 3.74792 12.4995C3.74794 13.0917 3.903 13.6735 4.19768 14.1872C4.49236 14.7009 4.91639 15.1284 5.42759 15.4274C5.27746 16.0006 5.28003 16.6031 5.43502 17.175C5.59001 17.7469 5.89204 18.2683 6.31105 18.6872C6.73007 19.1062 7.25147 19.4082 7.82339 19.5631C8.39532 19.718 8.99784 19.7205 9.57103 19.5703C9.86427 20.0889 10.29 20.5204 10.8046 20.8206C11.3192 21.1208 11.9043 21.279 12.5001 21.279C13.0959 21.2791 13.681 21.1209 14.1956 20.8207C14.7103 20.5205 15.136 20.089 15.4292 19.5704C16.0035 19.731 16.6102 19.7359 17.1871 19.5847C17.7639 19.4335 18.2902 19.1316 18.7119 18.7099C19.1336 18.2883 19.4356 17.7621 19.5868 17.1852C19.7381 16.6084 19.7333 16.0017 19.5728 15.4274C20.084 15.1284 20.508 14.7008 20.8026 14.1872C21.0973 13.6735 21.2523 13.0916 21.2523 12.4994C21.2523 11.9072 21.0973 11.3254 20.8026 10.8117C20.508 10.298 20.084 9.87042 19.5728 9.57146ZM18.1027 13.9066C17.9337 13.93 17.7738 13.9973 17.6388 14.1016C17.5038 14.206 17.3985 14.3439 17.3333 14.5016C17.2681 14.6593 17.2453 14.8314 17.2672 15.0006C17.2891 15.1698 17.3549 15.3304 17.4581 15.4663C17.6686 15.7397 17.7724 16.0803 17.7501 16.4245C17.7278 16.7688 17.581 17.0932 17.3371 17.3372C17.0932 17.5811 16.7688 17.728 16.4246 17.7503C16.0803 17.7727 15.7397 17.669 15.4663 17.4586C15.3311 17.3551 15.1712 17.2889 15.0024 17.2667C14.8336 17.2445 14.662 17.267 14.5046 17.332C14.3473 17.397 14.2098 17.5022 14.1059 17.637C14.0021 17.7719 13.9354 17.9317 13.9128 18.1004C13.8668 18.4425 13.6983 18.7563 13.4385 18.9835C13.1787 19.2108 12.8453 19.3361 12.5001 19.3361C12.155 19.3361 11.8215 19.2108 11.5617 18.9835C11.3019 18.7563 11.1334 18.4425 11.0875 18.1004C11.0648 17.9317 10.9982 17.7719 10.8943 17.637C10.7904 17.5022 10.6529 17.397 10.4956 17.332C10.3383 17.267 10.1666 17.2445 9.99787 17.2667C9.82909 17.2889 9.66912 17.3551 9.53398 17.4586C9.26057 17.669 8.91995 17.7727 8.57568 17.7503C8.23142 17.728 7.90706 17.5811 7.66314 17.3371C7.41923 17.0932 7.27244 16.7688 7.25018 16.4245C7.22792 16.0802 7.3317 15.7396 7.54216 15.4663C7.64513 15.3303 7.71075 15.1697 7.73251 15.0005C7.75426 14.8313 7.73141 14.6593 7.6662 14.5017C7.60099 14.3441 7.4957 14.2062 7.36078 14.1018C7.22585 13.9974 7.06597 13.9301 6.89701 13.9066C6.55914 13.8573 6.25032 13.688 6.027 13.4297C5.80369 13.1714 5.68081 12.8413 5.68082 12.4999C5.68083 12.1584 5.80374 11.8284 6.02707 11.5701C6.25041 11.3118 6.55925 11.1425 6.89712 11.0932C7.06607 11.0696 7.22593 11.0023 7.36085 10.8979C7.49576 10.7935 7.60103 10.6557 7.66623 10.498C7.73142 10.3404 7.75426 10.1685 7.7325 9.99926C7.71073 9.83007 7.6451 9.66951 7.54213 9.5335C7.33872 9.25925 7.24062 8.92103 7.26572 8.5805C7.29082 8.23996 7.43745 7.91978 7.67887 7.67832C7.9203 7.43685 8.24046 7.29017 8.58099 7.26502C8.92152 7.23986 9.25975 7.3379 9.53404 7.54128C9.67028 7.64299 9.83068 7.70744 9.99943 7.72828C10.1682 7.74912 10.3394 7.72563 10.4963 7.66012C10.6532 7.59461 10.7904 7.48934 10.8942 7.35469C10.998 7.22005 11.0649 7.06067 11.0884 6.89227C11.1413 6.55589 11.3126 6.24946 11.5715 6.02819C11.8303 5.80691 12.1596 5.68533 12.5001 5.68534C12.8407 5.68536 13.17 5.80696 13.4288 6.02826C13.6876 6.24955 13.8589 6.55599 13.9118 6.89237C13.9352 7.06083 14.0021 7.22027 14.1059 7.35496C14.2097 7.48966 14.3469 7.59496 14.5038 7.66046C14.6608 7.72597 14.8321 7.74942 15.0009 7.72851C15.1696 7.70759 15.33 7.64303 15.4663 7.54119C15.7397 7.3309 16.0803 7.22729 16.4245 7.24968C16.7687 7.27208 17.093 7.41894 17.3369 7.66288C17.5807 7.90682 17.7275 8.23115 17.7498 8.57537C17.7721 8.91958 17.6684 9.26014 17.4581 9.53351C17.3528 9.66883 17.2853 9.82959 17.2623 9.99946C17.2393 10.1693 17.2617 10.3423 17.3271 10.5007C17.3926 10.6591 17.4989 10.7974 17.6351 10.9015C17.7713 11.0055 17.9326 11.0717 18.1027 11.0932C18.4407 11.1424 18.7496 11.3116 18.9731 11.57C19.1965 11.8283 19.3194 12.1584 19.3194 12.4999C19.3194 12.8414 19.1965 13.1715 18.973 13.4299C18.7496 13.6882 18.4407 13.8574 18.1027 13.9066Z" fill="black"/>
<path d="M12.5002 8.9082C11.5549 8.91921 10.652 9.30246 9.98745 9.97483C9.32288 10.6472 8.95018 11.5545 8.9502 12.4998C8.95021 13.4452 9.32293 14.3524 9.98752 15.0248C10.6521 15.6971 11.555 16.0804 12.5003 16.0913C13.4456 16.0803 14.3484 15.6971 15.013 15.0247C15.6776 14.3524 16.0503 13.4451 16.0503 12.4997C16.0503 11.5543 15.6775 10.6471 15.0129 9.97475C14.3484 9.30241 13.4455 8.91918 12.5002 8.9082ZM12.5002 14.1484C12.0673 14.1417 11.6545 13.9651 11.3507 13.6566C11.047 13.3482 10.8767 12.9326 10.8767 12.4997C10.8767 12.0668 11.047 11.6513 11.3508 11.3429C11.6545 11.0344 12.0674 10.8578 12.5002 10.8512C12.9336 10.8571 13.3471 11.0334 13.6514 11.342C13.9558 11.6505 14.1264 12.0665 14.1264 12.4998C14.1264 12.9332 13.9557 13.3492 13.6514 13.6577C13.3471 13.9662 12.9335 14.1424 12.5002 14.1484Z" fill="black"/>
</svg>
