<svg width="25" height="25" viewBox="0 0 25 25" fill="none" xmlns="http://www.w3.org/2000/svg">
<rect x="0.713867" y="0.97168" width="23.3155" height="23.3156" rx="3" fill="#F2EE7A"/>
<path d="M20.1416 0H4.85787C3.56992 0.00144251 2.33514 0.513718 1.42443 1.42444C0.513712 2.33515 0.00143994 3.56994 0 4.85788V20.1421C0.00143994 21.4301 0.513712 22.6648 1.42443 23.5756C2.33514 24.4863 3.56992 24.9986 4.85787 25H20.1416C21.4296 24.9986 22.6645 24.4863 23.5753 23.5756C24.4861 22.6649 24.9985 21.4301 25 20.1421V4.85788C24.9985 3.56988 24.4861 2.33508 23.5753 1.42438C22.6645 0.513667 21.4296 0.0014166 20.1416 0ZM23.057 20.1421C23.0561 20.915 22.7486 21.6559 22.202 22.2024C21.6555 22.7489 20.9145 23.0562 20.1416 23.057H4.85787C4.08507 23.0561 3.3442 22.7487 2.79775 22.2022C2.2513 21.6558 1.94389 20.9149 1.94296 20.1421V4.85788C1.94389 4.08509 2.2513 3.34421 2.79775 2.79775C3.3442 2.2513 4.08507 1.9439 4.85787 1.94296H20.1416C20.9145 1.94379 21.6555 2.25115 22.202 2.79761C22.7486 3.34407 23.0561 4.08501 23.057 4.85788V20.1421Z" fill="black"/>
<path d="M19.9596 11.5288H17.5053C17.3762 10.855 17.1118 10.2143 16.7281 9.64552L18.4616 7.91234C18.5527 7.82235 18.6252 7.71522 18.6747 7.59713C18.7243 7.47903 18.7501 7.3523 18.7505 7.22423C18.7509 7.09615 18.7259 6.96926 18.6771 6.85085C18.6283 6.73245 18.5565 6.62486 18.466 6.5343C18.3754 6.44373 18.2678 6.37197 18.1494 6.32314C18.031 6.27431 17.9041 6.24938 17.7761 6.24978C17.648 6.25018 17.5212 6.2759 17.4031 6.32547C17.2851 6.37504 17.1779 6.44747 17.0879 6.5386L15.3544 8.27179C14.7857 7.88821 14.1452 7.62394 13.4714 7.49496V5.04059C13.4665 4.78622 13.3619 4.54394 13.1803 4.3658C12.9986 4.18767 12.7543 4.08788 12.4999 4.08789C12.2455 4.0879 12.0012 4.18769 11.8196 4.36584C11.6379 4.54399 11.5334 4.78627 11.5285 5.04065V7.49496C10.8548 7.62403 10.2143 7.88836 9.64574 8.27196L7.91204 6.5386C7.72864 6.36245 7.48349 6.26522 7.22921 6.26779C6.97493 6.27035 6.73179 6.37251 6.55198 6.55233C6.37218 6.73215 6.27004 6.9753 6.2675 7.22958C6.26495 7.48386 6.3622 7.729 6.53837 7.91239L8.27208 9.64575C7.88848 10.2145 7.62417 10.8551 7.49515 11.5288H5.04022C4.78584 11.5338 4.54357 11.6383 4.36543 11.82C4.1873 12.0016 4.08752 12.2459 4.08752 12.5003C4.08753 12.7548 4.18733 12.999 4.36548 13.1807C4.54363 13.3623 4.78591 13.4668 5.04028 13.4718H7.49507C7.62412 14.1454 7.8884 14.7859 8.27194 15.3545L6.53824 17.0878C6.36199 17.2712 6.26468 17.5164 6.2672 17.7707C6.26973 18.025 6.37189 18.2682 6.55174 18.4481C6.7316 18.6279 6.97481 18.7301 7.22914 18.7326C7.48347 18.7351 7.72865 18.6378 7.91201 18.4615L9.64562 16.7282C10.2143 17.1118 10.8548 17.3761 11.5285 17.5052V19.9596C11.5285 20.2172 11.6308 20.4643 11.813 20.6465C11.9952 20.8287 12.2423 20.931 12.4999 20.931C12.7576 20.931 13.0047 20.8287 13.1869 20.6465C13.3691 20.4643 13.4714 20.2172 13.4714 19.9596V17.5052C14.1451 17.3762 14.7857 17.112 15.3544 16.7284L17.0879 18.4615C17.1779 18.5527 17.2851 18.6251 17.4031 18.6747C17.5212 18.7243 17.648 18.75 17.7761 18.7504C17.9041 18.7508 18.031 18.7258 18.1494 18.677C18.2678 18.6282 18.3754 18.5564 18.466 18.4659C18.5565 18.3753 18.6283 18.2677 18.6771 18.1493C18.7259 18.0309 18.7509 17.904 18.7505 17.7759C18.7501 17.6479 18.7243 17.5211 18.6747 17.403C18.6252 17.2849 18.5527 17.1778 18.4616 17.0878L16.7281 15.3547C17.1118 14.7861 17.3762 14.1455 17.5052 13.4718H19.9596C20.2139 13.4667 20.4561 13.3621 20.6341 13.1805C20.8121 12.9989 20.9119 12.7547 20.9119 12.5003C20.9119 12.246 20.8121 12.0018 20.6341 11.8201C20.4561 11.6385 20.2139 11.5339 19.9596 11.5288ZM12.4999 15.6605C11.6679 15.6511 10.8731 15.314 10.288 14.7223C9.70294 14.1307 9.37482 13.3321 9.37483 12.5C9.37484 11.6679 9.70299 10.8694 10.2881 10.2777C10.8731 9.68608 11.668 9.34901 12.5 9.33968C13.332 9.34903 14.1268 9.68612 14.7119 10.2778C15.297 10.8695 15.6251 11.668 15.6251 12.5001C15.6251 13.3322 15.2969 14.1307 14.7119 14.7224C14.1268 15.3141 13.3319 15.6511 12.4999 15.6605Z" fill="black"/>
</svg>
