<svg width="25" height="25" viewBox="0 0 25 25" fill="none" xmlns="http://www.w3.org/2000/svg">
<rect x="0.713867" y="0.97168" width="23.3155" height="23.3156" rx="3" fill="#D0F0C0"/>
<path d="M20.1416 0H4.85787C3.56992 0.00144251 2.33514 0.513718 1.42443 1.42444C0.513712 2.33515 0.00143994 3.56994 0 4.85788V20.1421C0.00143994 21.4301 0.513712 22.6648 1.42443 23.5756C2.33514 24.4863 3.56992 24.9986 4.85787 25H20.1416C21.4296 24.9986 22.6645 24.4863 23.5753 23.5756C24.4861 22.6649 24.9985 21.4301 25 20.1421V4.85788C24.9985 3.56988 24.4861 2.33508 23.5753 1.42438C22.6645 0.513667 21.4296 0.0014166 20.1416 0ZM23.057 20.1421C23.0561 20.915 22.7486 21.6559 22.202 22.2024C21.6555 22.7489 20.9145 23.0562 20.1416 23.057H4.85787C4.08507 23.0561 3.3442 22.7487 2.79775 22.2022C2.2513 21.6558 1.94389 20.9149 1.94296 20.1421V4.85788C1.94389 4.08509 2.2513 3.34421 2.79775 2.79775C3.3442 2.2513 4.08507 1.9439 4.85787 1.94296H20.1416C20.9145 1.94379 21.6555 2.25115 22.202 2.79761C22.7486 3.34407 23.0561 4.08501 23.057 4.85788V20.1421Z" fill="black"/>
<g clip-path="url(#clip0_1023_6680)">
<path d="M21.9819 19.5951L21.1564 16.6962C21.1107 16.5343 20.9811 16.4053 20.8133 16.3523L19.2005 15.8393C18.0053 13.8954 18.4578 11.7966 18.8509 10.7016C19.4788 8.95273 18.9636 7.06385 17.5675 6.00091C16.7197 5.35595 15.653 5.00098 14.5619 5.00098C12.1077 5.00098 10.1029 6.75687 9.83514 9.00073H7.65608C7.51478 9.00073 7.37985 9.05372 7.27998 9.14672L5.15512 11.1466C5.05631 11.2406 5 11.3676 5 11.5006V20.5C5 20.776 5.23799 21 5.53122 21H15.0931C15.3864 21 15.6243 20.776 15.6243 20.5V11.5006C15.6243 11.3676 15.568 11.2406 15.4692 11.1466L13.3444 9.14672C13.2445 9.05372 13.1096 9.00073 12.9683 9.00073H10.8976C11.1579 7.30883 12.6941 6.00091 14.5619 6.00091C15.4108 6.00091 16.2405 6.2769 16.8993 6.77787C17.9511 7.57882 18.3314 9.02672 17.8448 10.3806C17.4039 11.6076 16.9109 13.9404 18.1912 16.1733L17.1659 17.2712C17.0491 17.3962 17.0055 17.5692 17.0522 17.7302L17.8767 20.628C17.9394 20.853 18.154 21 18.3888 21C18.4345 21 18.4802 20.995 18.5269 20.983L21.6058 20.207C21.8895 20.136 22.0574 19.861 21.9819 19.5951ZM12.7483 10.0007L14.5619 11.7076V20H6.06243V11.7076L7.87601 10.0007H12.7483ZM18.7649 19.888L18.1508 17.7312L18.9933 16.8292L20.2034 17.2142L20.8175 19.3711L18.7649 19.888Z" fill="black"/>
<path d="M12.9683 15.5C12.0079 15.5 11.1739 15.9869 10.7064 16.7069C10.1061 15.668 8.94805 15 7.65614 15C7.48508 15 7.32466 15.077 7.22479 15.208C7.12492 15.338 7.0973 15.506 7.15254 15.659L7.54458 16.7649C8.01736 18.1018 9.34222 18.9998 10.8402 18.9998H10.8434C12.3075 18.9998 13.4995 17.8778 13.4995 16.4999V15.9999C13.4995 15.724 13.2615 15.5 12.9683 15.5ZM8.55177 16.4479L8.43596 16.1199C9.13611 16.3439 9.70451 16.8639 9.9478 17.5518L10.0636 17.8798C9.36347 17.6558 8.79506 17.1359 8.55177 16.4479ZM11.3778 17.9128C11.415 17.2999 11.8453 16.7839 12.435 16.5859C12.3978 17.1989 11.9675 17.7148 11.3778 17.9128Z" fill="black"/>
<path d="M10.8434 11H9.78097C9.48774 11 9.24976 11.224 9.24976 11.5C9.24976 11.776 9.48774 11.9999 9.78097 11.9999H10.8434C11.1366 11.9999 11.3746 11.776 11.3746 11.5C11.3746 11.224 11.1366 11 10.8434 11Z" fill="black"/>
</g>
<defs>
<clipPath id="clip0_1023_6680">
<rect width="17" height="16" fill="white" transform="translate(5 5)"/>
</clipPath>
</defs>
</svg>
