<svg width="25" height="25" viewBox="0 0 25 25" fill="none" xmlns="http://www.w3.org/2000/svg">
<rect x="0.971436" y="0.97168" width="23.3155" height="23.3156" rx="3" fill="#E4E40D"/>
<path d="M20.1416 0H4.85787C3.56992 0.00144251 2.33514 0.513718 1.42443 1.42444C0.513712 2.33515 0.00143994 3.56994 0 4.85789V20.1421C0.00143994 21.4301 0.513712 22.6648 1.42443 23.5756C2.33514 24.4863 3.56992 24.9986 4.85787 25H20.1416C21.4296 24.9986 22.6645 24.4863 23.5753 23.5756C24.4861 22.6649 24.9985 21.4301 25 20.1421V4.85789C24.9985 3.56988 24.4861 2.33509 23.5753 1.42438C22.6645 0.513668 21.4296 0.0014166 20.1416 0ZM23.057 20.1421C23.0561 20.915 22.7486 21.6559 22.202 22.2024C21.6555 22.7489 20.9145 23.0562 20.1416 23.057H4.85787C4.08507 23.0561 3.3442 22.7487 2.79775 22.2022C2.2513 21.6558 1.94389 20.9149 1.94296 20.1421V4.85789C1.94389 4.08509 2.2513 3.34421 2.79775 2.79776C3.3442 2.2513 4.08507 1.9439 4.85787 1.94296H20.1416C20.9145 1.94379 21.6555 2.25115 22.202 2.79761C22.7486 3.34407 23.0561 4.08501 23.057 4.85789V20.1421Z" fill="black"/>
<path d="M20.15 10.8C20.3754 10.8 20.5916 10.7104 20.751 10.551C20.9104 10.3916 21 10.1754 21 9.95V7.4C21 7.17457 20.9104 6.95837 20.751 6.79896C20.5916 6.63955 20.3754 6.55 20.15 6.55H17.6C17.3746 6.55 17.1584 6.63955 16.999 6.79896C16.8396 6.95837 16.75 7.17457 16.75 7.4C16.75 7.62543 16.8396 7.84163 16.999 8.00104C17.1584 8.16045 17.3746 8.25 17.6 8.25H18.0981L13.35 12.9981L11.401 11.0491C11.2416 10.8897 11.0254 10.8002 10.8 10.8002C10.5746 10.8002 10.3584 10.8897 10.1991 11.0491L5.7 15.5481V4.85C5.7 4.62457 5.61045 4.40837 5.45104 4.24896C5.29163 4.08955 5.07543 4 4.85 4C4.62457 4 4.40837 4.08955 4.24896 4.24896C4.08955 4.40837 4 4.62457 4 4.85V18.45C4 19.1263 4.26866 19.7749 4.74688 20.2531C5.2251 20.7313 5.8737 21 6.55 21H20.15C20.3754 21 20.5916 20.9104 20.751 20.751C20.9104 20.5916 21 20.3754 21 20.15C21 19.9246 20.9104 19.7084 20.751 19.549C20.5916 19.3896 20.3754 19.3 20.15 19.3H6.55C6.32457 19.3 6.10837 19.2104 5.94896 19.051C5.78955 18.8916 5.7 18.6754 5.7 18.45V17.9519L10.8 12.8519L12.7491 14.8009C12.9084 14.9603 13.1246 15.0498 13.35 15.0498C13.5754 15.0498 13.7916 14.9603 13.9509 14.8009L19.3 9.4519V9.95C19.3 10.1754 19.3896 10.3916 19.549 10.551C19.7084 10.7104 19.9246 10.8 20.15 10.8Z" fill="black"/>
</svg>
