<svg width="25" height="25" viewBox="0 0 25 25" fill="none" xmlns="http://www.w3.org/2000/svg">
<rect x="0.971436" y="0.713867" width="23.3155" height="23.3156" rx="3" fill="#9CC2E2"/>
<path d="M20.1421 0H4.85837C3.57037 0.0014166 2.33552 0.513668 1.42472 1.42438C0.513923 2.33509 0.00154796 3.56988 0 4.85789V20.1421C0.00154796 21.4301 0.513923 22.6649 1.42472 23.5756C2.33552 24.4863 3.57037 24.9986 4.85837 25H20.1421C21.4301 24.9986 22.6649 24.4863 23.5756 23.5756C24.4863 22.6648 24.9986 21.4301 25 20.1421V4.85789C24.9986 3.56994 24.4863 2.33515 23.5756 1.42444C22.6649 0.513719 21.4301 0.00144251 20.1421 0ZM23.057 20.1421C23.0561 20.9149 22.7487 21.6558 22.2022 22.2022C21.6558 22.7487 20.9149 23.0561 20.1421 23.057H4.85837C4.0855 23.0562 3.34451 22.7489 2.79795 22.2024C2.2514 21.6559 1.94392 20.915 1.94296 20.1421V4.85789C1.94392 4.08501 2.2514 3.34407 2.79795 2.79761C3.34451 2.25115 4.0855 1.94379 4.85837 1.94296H20.1421C20.9149 1.9439 21.6558 2.2513 22.2022 2.79775C22.7487 3.3442 23.0561 4.08509 23.057 4.85789V20.1421Z" fill="black"/>
<path d="M20.6737 13.7571C20.5919 13.5128 20.4164 13.311 20.1859 13.1959C19.9554 13.0808 19.6886 13.0619 19.4442 13.1433L16.983 13.965L16.3761 13.6149C16.5904 12.8872 16.5907 12.1131 16.3768 11.3853L16.9888 11.0322C17.129 11.0556 19.6575 11.9501 19.7336 11.8749C19.9626 11.8707 20.1828 11.786 20.3556 11.6356C20.5284 11.4853 20.6427 11.2789 20.6785 11.0527C20.7143 10.8265 20.6694 10.5949 20.5515 10.3985C20.4336 10.2022 20.2503 10.0536 20.0338 9.97885L19.254 9.72543L20.2117 9.17293C20.3223 9.10917 20.4192 9.02426 20.497 8.92303C20.5747 8.8218 20.6318 8.70625 20.6649 8.58298C20.6979 8.4597 20.7064 8.33111 20.6898 8.20456C20.6731 8.07801 20.6317 7.95597 20.5679 7.84543C20.5041 7.73489 20.4192 7.638 20.3179 7.5603C20.2166 7.4826 20.101 7.42562 19.9778 7.3926C19.8545 7.35959 19.7259 7.35119 19.5993 7.36788C19.4728 7.38458 19.3508 7.42605 19.2403 7.48991L18.2577 8.05688L18.4334 7.19581C18.4848 6.94331 18.4339 6.68071 18.2917 6.46578C18.1496 6.25085 17.9278 6.1012 17.6753 6.04974C17.4228 5.99829 17.1602 6.04925 16.9453 6.19141C16.7304 6.33357 16.5807 6.55529 16.5293 6.80779L16.0099 9.35383L15.4014 9.70498C14.8753 9.15967 14.2067 8.77311 13.4716 8.58935V7.8806L15.3842 6.15886C15.5697 5.98497 15.6797 5.74525 15.6905 5.49118C15.7013 5.23711 15.612 4.98893 15.4419 4.79993C15.2718 4.61093 15.0343 4.49616 14.7805 4.48028C14.5267 4.4644 14.2768 4.54866 14.0844 4.71497L13.4716 5.26654V4.15898C13.4716 3.90133 13.3692 3.65423 13.187 3.47204C13.0049 3.28986 12.7578 3.1875 12.5001 3.1875C12.2425 3.1875 11.9954 3.28986 11.8132 3.47204C11.631 3.65423 11.5286 3.90133 11.5286 4.15898V5.28985L10.8735 4.70971C10.6798 4.54473 10.4292 4.46231 10.1754 4.48015C9.92155 4.498 9.68487 4.61469 9.51616 4.80515C9.34745 4.99561 9.26019 5.24464 9.2731 5.49875C9.28602 5.75285 9.39809 5.99175 9.58524 6.16412L11.5286 7.88546V8.58929C10.7933 8.77279 10.1243 9.15923 9.59799 9.70455L8.98596 9.35138L8.45053 6.83155C8.39361 6.58293 8.2412 6.36667 8.02621 6.22945C7.81122 6.09223 7.55089 6.04506 7.30143 6.09813C7.05196 6.15119 6.83337 6.30023 6.69284 6.51307C6.55231 6.72592 6.50112 6.98548 6.55031 7.23574L6.72226 8.04525L5.75997 7.48996C5.5368 7.36129 5.27167 7.32651 5.02286 7.39327C4.77405 7.46003 4.56194 7.62287 4.43316 7.84597C4.30437 8.06908 4.26946 8.3342 4.3361 8.58304C4.40273 8.83188 4.56545 9.04408 4.78849 9.17298L5.76685 9.7374L4.94029 10.0135C4.72502 10.0898 4.54336 10.2392 4.427 10.4357C4.31065 10.6322 4.267 10.8633 4.30366 11.0887C4.34032 11.3141 4.45497 11.5195 4.6276 11.669C4.80023 11.8185 5.01988 11.9026 5.24821 11.9067C5.34707 11.9634 7.8508 11.0799 8.01513 11.0345L8.62372 11.3855C8.40967 12.1133 8.40967 12.8874 8.62372 13.6152L8.01304 13.9675L5.56644 13.1723C5.323 13.0985 5.06036 13.1232 4.83491 13.241C4.60945 13.3587 4.43915 13.5602 4.36055 13.8021C4.28195 14.044 4.30133 14.307 4.41452 14.5348C4.52771 14.7626 4.72569 14.9369 4.96596 15.0204L5.74769 15.2743L4.78849 15.8277C4.60741 15.9374 4.46684 16.1029 4.38793 16.2993C4.30902 16.4958 4.29603 16.7125 4.35092 16.917C4.40581 17.1215 4.52561 17.3026 4.6923 17.4331C4.85899 17.5636 5.06355 17.6364 5.27521 17.6407C5.62165 17.6966 6.44065 17.0846 6.74214 16.944L6.56676 17.8034C6.52061 18.0538 6.57455 18.3123 6.71698 18.5233C6.85941 18.7343 7.07896 18.881 7.32842 18.9318C7.57788 18.9826 7.83733 18.9335 8.05097 18.7951C8.26461 18.6566 8.41538 18.4398 8.47086 18.1914L8.98991 15.647L9.59744 15.2964C10.1236 15.842 10.7929 16.2283 11.5285 16.4112V17.1191L9.61595 18.8408C9.42982 19.0146 9.31935 19.2545 9.3083 19.5088C9.29725 19.7632 9.38651 20.0118 9.55687 20.201C9.72724 20.3903 9.96508 20.5051 10.2192 20.5207C10.4734 20.5364 10.7235 20.4516 10.9158 20.2847L11.5286 19.7332V20.8416C11.5286 21.0993 11.631 21.3464 11.8132 21.5286C11.9954 21.7107 12.2425 21.8131 12.5001 21.8131C12.7578 21.8131 13.0049 21.7107 13.187 21.5286C13.3692 21.3464 13.4716 21.0993 13.4716 20.8416V19.71C13.7978 19.9569 14.3024 20.5973 14.7699 20.5342C14.9655 20.5309 15.1556 20.4691 15.3157 20.3566C15.4758 20.2442 15.5985 20.0863 15.6679 19.9034C15.7374 19.7204 15.7503 19.5209 15.7051 19.3305C15.66 19.1402 15.5587 18.9678 15.4145 18.8355L13.4716 17.1142V16.4113C14.2076 16.2288 14.8772 15.8426 15.4038 15.297L16.0145 15.6495L16.5497 18.1682C16.6076 18.4157 16.7603 18.6307 16.975 18.767C17.1896 18.9032 17.4491 18.9499 17.6978 18.897C17.9465 18.8441 18.1645 18.6958 18.3051 18.484C18.4457 18.2722 18.4977 18.0137 18.4499 17.764L18.2781 16.9556C18.5715 17.0904 19.3746 17.6934 19.7249 17.6406C19.9366 17.6364 20.1411 17.5636 20.3078 17.4331C20.4745 17.3026 20.5943 17.1214 20.6492 16.917C20.7041 16.7125 20.6911 16.4957 20.6122 16.2993C20.5333 16.1029 20.3927 15.9373 20.2116 15.8277L19.2324 15.2627L20.0599 14.9867C20.3042 14.9049 20.5061 14.7294 20.6212 14.4989C20.7363 14.2684 20.7552 14.0016 20.6737 13.7571ZM12.5001 14.592C11.9503 14.5844 11.4256 14.3606 11.0395 13.9691C10.6534 13.5776 10.4369 13.0499 10.4369 12.5C10.4369 11.9502 10.6534 11.4224 11.0395 11.0309C11.4257 10.6395 11.9504 10.4157 12.5002 10.4082C13.05 10.4158 13.5747 10.6395 13.9608 11.031C14.3469 11.4225 14.5634 11.9502 14.5634 12.5001C14.5634 13.05 14.3469 13.5777 13.9608 13.9692C13.5746 14.3607 13.0499 14.5844 12.5001 14.592Z" fill="black"/>
</svg>
