<svg width="74" height="75" viewBox="0 0 74 75" fill="none" xmlns="http://www.w3.org/2000/svg">
<path d="M37.0006 70.7183C34.9348 70.7183 32.8381 70.2495 31.2039 69.2808L14.2457 59.3745C7.33902 54.6558 6.90735 53.937 6.90735 46.5308V28.4683C6.90735 21.062 7.30818 20.3433 14.0915 15.687L31.1731 5.68701C34.4106 3.78076 39.4981 3.78076 42.7356 5.68701L59.7556 15.6245C66.6623 20.3433 67.0939 21.062 67.0939 28.4683V46.4995C67.0939 53.9058 66.6931 54.6245 59.9098 59.2808L42.8281 69.2808C41.1631 70.2495 39.0664 70.7183 37.0006 70.7183ZM37.0006 8.96826C35.7056 8.96826 34.4414 9.21826 33.5473 9.74951L16.589 19.687C11.5632 23.1245 11.5632 23.1245 11.5632 28.4683V46.4995C11.5632 51.8433 11.5632 51.8433 16.7123 55.3745L33.5473 65.2183C35.3664 66.2808 38.6656 66.2808 40.4848 65.2183L57.4431 55.2808C62.4381 51.8433 62.4381 51.8433 62.4381 46.4995V28.4683C62.4381 23.1245 62.4381 23.1245 57.2889 19.5933L40.4539 9.74951C39.5598 9.21826 38.2956 8.96826 37.0006 8.96826Z" fill="#FA954B"/>
<path d="M37 49.2188C30.6175 49.2188 25.4375 43.9688 25.4375 37.5C25.4375 31.0312 30.6175 25.7812 37 25.7812C43.3825 25.7812 48.5625 31.0312 48.5625 37.5C48.5625 43.9688 43.3825 49.2188 37 49.2188ZM37 30.4688C33.1767 30.4688 30.0625 33.625 30.0625 37.5C30.0625 41.375 33.1767 44.5312 37 44.5312C40.8233 44.5312 43.9375 41.375 43.9375 37.5C43.9375 33.625 40.8233 30.4688 37 30.4688Z" fill="#FA954B"/>
</svg>
